<svg width="47" height="49" viewBox="0 0 47 49" version="1.1" xmlns="http://www.w3.org/2000/svg" xmlns:xlink="http://www.w3.org/1999/xlink">
<title>loupe</title>
<desc>Created using Figma</desc>
<g id="Canvas" transform="translate(607 -1227)">
<g id="loupe">
<g id="Group">
<g id="Group">
<g id="Vector">
<use xlink:href="#path0_fill" transform="translate(-607 1227)" fill="#FFFFFF"/>
</g>
</g>
</g>
<g id="Group">
<g id="Group">
<g id="Vector">
<use xlink:href="#path1_fill" transform="translate(-589.061 1232.4)" fill="#FFFFFF"/>
</g>
</g>
</g>
<g id="Group">
<g id="Group">
<g id="Vector">
<use xlink:href="#path2_fill" transform="translate(-582.195 1238.01)" fill="#FFFFFF"/>
</g>
</g>
</g>
</g>
</g>
<defs>
<path id="path0_fill" d="M 41.5228 5.1399C 34.9517 -1.7133 24.26 -1.7133 17.6889 5.1399C 14.5057 8.45965 12.7528 12.8737 12.7528 17.5686C 12.7528 21.8455 14.2082 25.8888 16.8736 29.0847L 14.8665 31.178L 12.821 29.0447C 12.5969 28.8109 12.2928 28.6796 11.9759 28.6796C 11.6589 28.6796 11.3548 28.8109 11.1307 29.0447L 1.54757 39.0394C 0.549612 40.0801 0 41.4637 0 42.9356C 0 44.4074 0.549612 45.7912 1.54739 46.8318C 2.54535 47.8726 3.87206 48.4457 5.28316 48.4457C 6.69425 48.4457 8.02114 47.8725 9.01892 46.8319L 18.6022 36.8373C 18.8263 36.6036 18.9522 36.2865 18.9522 35.9559C 18.9522 35.6253 18.8263 35.3082 18.6022 35.0745L 16.5567 32.9412L 18.5644 30.8472C 21.7215 33.7067 25.6634 35.1372 29.6058 35.1372C 33.9215 35.1372 38.2373 33.4239 41.5228 29.9974C 44.7058 26.6776 46.4589 22.2637 46.4589 17.5688C 46.4589 12.8736 44.706 8.45965 41.5228 5.1399ZM 7.32862 45.0689C 6.78227 45.6387 6.0559 45.9525 5.28316 45.9525C 4.5105 45.9525 3.78404 45.6386 3.23769 45.0688C 2.69144 44.4991 2.39046 43.7415 2.39046 42.9357C 2.39046 42.13 2.69144 41.3722 3.23779 40.8024L 8.58546 35.2251L 12.6764 39.4915L 7.32862 45.0689ZM 14.3669 37.7285L 10.2759 33.4619L 11.9759 31.689L 16.0668 35.9557L 14.3669 37.7285ZM 39.8324 28.2343C 34.1935 34.1156 25.0183 34.1156 19.3793 28.2343C 16.6477 25.3854 15.1433 21.5977 15.1433 17.5686C 15.1433 13.5395 16.6477 9.75182 19.3793 6.90297C 22.1988 3.96243 25.9024 2.49206 29.6059 2.49206C 33.3094 2.49206 37.013 3.96224 39.8325 6.90297C 42.5641 9.75182 44.0685 13.5396 44.0685 17.5686C 44.0685 21.5976 42.5641 25.3854 39.8324 28.2343Z"/>
<path id="path1_fill" d="M 19.9214 3.56001C 15.3701 -1.18658 7.96469 -1.18677 3.41336 3.56001C -1.1378 8.30679 -1.1378 16.0302 3.41345 20.7769C 5.68912 23.1501 8.67818 24.3369 11.6674 24.3369C 14.6567 24.3369 17.6458 23.1501 19.9215 20.7769L 19.9215 20.7768C 24.4727 16.0303 24.4727 8.30679 19.9214 3.56001ZM 18.231 19.0141C 14.6118 22.7887 8.72301 22.7887 5.10375 19.0141C 1.4845 15.2395 1.4845 9.09776 5.10366 5.32309C 6.91347 3.43547 9.29004 2.49213 11.6674 2.49213C 14.0442 2.49213 16.4217 3.43604 18.231 5.32309C 21.8503 9.09767 21.8503 15.2394 18.231 19.0141Z"/>
<path id="path2_fill" d="M 9.25167 1.91958C 6.79734 -0.639861 2.80432 -0.639861 0.350076 1.91958C -0.116691 2.40639 -0.116691 3.19566 0.350076 3.68266C 0.816842 4.16947 1.57361 4.16947 2.04056 3.68266C 3.56245 2.09523 6.03929 2.09523 7.56137 3.68266C 7.79484 3.92616 8.10063 4.04777 8.40652 4.04777C 8.7124 4.04777 9.01838 3.92607 9.25167 3.68266C 9.71844 3.19585 9.71844 2.40649 9.25167 1.91958Z"/>
</defs>
</svg>
