<svg width="47" height="49" xmlns="http://www.w3.org/2000/svg" xmlns:xlink="http://www.w3.org/1999/xlink"><use xlink:href="#path0_fill" fill="#FFF"/><use xlink:href="#path1_fill" transform="translate(17.939 5.4)" fill="#FFF"/><use xlink:href="#path2_fill" transform="translate(24.805 11.01)" fill="#FFF"/><defs><path id="path0_fill" d="M41.523 5.14c-6.571-6.853-17.263-6.853-23.834 0-3.183 3.32-4.936 7.734-4.936 12.429 0 4.277 1.455 8.32 4.12 11.516l-2.007 2.093-2.045-2.133a1.17 1.17 0 0 0-.845-.365 1.17 1.17 0 0 0-.845.365l-9.583 9.994A5.595 5.595 0 0 0 0 42.936a5.6 5.6 0 0 0 1.547 3.896c.998 1.04 2.325 1.614 3.736 1.614s2.738-.573 3.736-1.614l9.583-9.995c.224-.233.35-.55.35-.881 0-.33-.126-.648-.35-.882l-2.045-2.133 2.007-2.094c3.157 2.86 7.1 4.29 11.042 4.29 4.316 0 8.631-1.713 11.917-5.14 3.183-3.32 4.936-7.733 4.936-12.428 0-4.695-1.753-9.11-4.936-12.43zM7.329 45.069a2.815 2.815 0 0 1-2.046.883 2.813 2.813 0 0 1-2.045-.883 3.064 3.064 0 0 1-.848-2.133c0-.806.301-1.564.848-2.134l5.347-5.577 4.091 4.267-5.347 5.577zm7.038-7.34l-4.091-4.267 1.7-1.773 4.09 4.267-1.7 1.772zm25.465-9.495c-5.639 5.882-14.814 5.882-20.453 0-2.731-2.849-4.236-6.636-4.236-10.665 0-4.03 1.505-7.817 4.236-10.666 2.82-2.94 6.523-4.41 10.227-4.41 3.703 0 7.407 1.47 10.227 4.41 2.731 2.849 4.236 6.637 4.236 10.666 0 4.029-1.505 7.816-4.237 10.665z"/><path id="path1_fill" d="M19.921 3.56c-4.55-4.747-11.956-4.747-16.508 0-4.55 4.747-4.55 12.47 0 17.217 2.276 2.373 5.265 3.56 8.254 3.56 2.99 0 5.979-1.187 8.255-3.56 4.55-4.747 4.55-12.47 0-17.217zm-1.69 15.454c-3.62 3.775-9.508 3.775-13.127 0-3.62-3.774-3.62-9.916 0-13.69 1.81-1.889 4.186-2.832 6.563-2.832s4.755.944 6.564 2.831c3.62 3.775 3.62 9.916 0 13.691z"/><path id="path2_fill" d="M9.252 1.92a6.12 6.12 0 0 0-8.902 0 1.285 1.285 0 0 0 0 1.763 1.16 1.16 0 0 0 1.69 0 3.795 3.795 0 0 1 5.521 0c.234.243.54.365.846.365.305 0 .611-.122.845-.365a1.285 1.285 0 0 0 0-1.763z"/></defs></svg>